<svg xmlns="http://www.w3.org/2000/svg" xmlns:xlink="http://www.w3.org/1999/xlink" fill="none" version="1.1" width="24" height="24" viewBox="0 0 24 24"><defs><clipPath id="master_svg0_211_10906"><rect x="0" y="0" width="24" height="24" rx="0"/></clipPath></defs><g clip-path="url(#master_svg0_211_10906)"><g><path d="M21.312705078125,6.069229375C19.892005078125,2.742599375,16.634705078125002,0.755859375,12.615005078125,0.755859375C5.234025078125001,0.755859375,3.940335078125,8.772119375,3.755515078125,10.389229375C3.755515078125,10.412329375,3.743965078125,10.435429375,3.732415078125,10.446979375C3.224185078125,10.920559375,2.288566078125,11.913959375,1.734128078125,13.288459375C1.514662778125,13.819859375,1.537764278125,14.362659375,1.803433078125,14.813159375C2.3232190781249997,15.737259375,3.755515078125,16.072259375,4.564075078125001,16.187759375C4.598725078125,16.199259375,4.633375078125,16.233959374999998,4.633375078125,16.268559375000002L4.633375078125,21.593459375C4.633375078125,21.801459375,4.7026850781250005,21.997759375,4.841295078125,22.136359375C4.9683550781250005,22.286559375,5.153165078124999,22.355859375,5.337975078125,22.355859375L10.027605078125,22.355859375C10.085355078125,22.355859375,10.131565078125,22.344259375,10.189315078125,22.332759375L18.494305078125,22.228759375L18.494305078125,22.136359375C18.713805078125,22.009359375,18.864005078125,21.755259375,18.864005078125,21.466459375L18.864005078125,18.209159375C18.864005078125,18.186059375,18.864005078125,18.174459375,18.875505078125,18.151359375C21.936505078125,14.016159375,22.837405078125,9.615329375,21.312705078125,6.069229375ZM13.481305078125,15.494659375C13.400405078125,15.529359375,13.319605078125,15.540859375,13.238705078125,15.540859375C12.915305078125,15.540859375,12.626505078125,15.332959375,12.522605078125,15.032659375L12.037405078125,13.623459375C12.025905078125,13.588759375,11.991205078125,13.565659375,11.956605078125,13.565659375L9.426965078125,13.565659375C9.392305078125,13.565659375,9.357655078125,13.588759375,9.346105078125,13.623459375L8.837875078125,15.044159375C8.722365078125,15.332959375,8.445145078125,15.517759375,8.133275078125,15.517759375C8.040865078125,15.517759375,7.960005078125,15.506259375,7.879155078125,15.471559375C7.486425078125,15.332959375,7.278515078125,14.917159375,7.405575078125,14.524459375L10.027605078125,7.224309375C10.131565078125,6.923989375,10.420325078125,6.716069375,10.743755078125,6.716069375C11.078725078125,6.716069375,11.367495078125,6.923989375,11.471455078125,7.235859375L13.966405078125,14.535959375C14.093505078125,14.928659375,13.874005078125,15.356059375,13.481305078125,15.494659375ZM16.565405078125,14.743859375C16.565405078125,15.148159375,16.218805078125,15.483159375,15.803005078125,15.483159375C15.375605078125,15.483159375,15.040605078125,15.148159375,15.040605078125,14.743859375L15.040605078125,7.466879375C15.040605078125,7.062599375,15.387205078125,6.727619375,15.803005078125,6.727619375C16.218805078125,6.727619375,16.565405078125,7.062599375,16.565405078125,7.466879375L16.565405078125,14.743859375ZM10.801505078125,10.019609375C10.789955078125,9.984949375,10.755305078125,9.961849375,10.720655078125,9.961849375C10.685995078125,9.961849375,10.651345078125,9.984949375,10.639795078125,10.019609375L9.958295078125,11.913959375C9.946745078125,11.937059375,9.958295078125,11.971659375,9.969845078125,11.994759375C9.981395078125,12.017859375,10.016055078125,12.029459375,10.039155078125,12.029459375L11.367495078125,12.029459375C11.390595078125,12.029459375,11.425245078125,12.017859375,11.436795078125,11.994759375C11.448345078125,11.971659375,11.459905078125,11.948559375,11.448345078125,11.913959375L10.801505078125,10.019609375Z" fill="currentColor" fill-opacity="1"/></g></g></svg>