<svg t="1700733477193" class="icon" viewBox="0 0 1024 1024" version="1.1" xmlns="http://www.w3.org/2000/svg" p-id="3402" width="200" height="200"><path d="M107.291296 43.080244h808.701109c41.852303 0 75.825322 33.870691 75.825323 75.722994v641.394224c0 41.852303-33.870691 66.308784-75.825323 66.308784H677.464975l-129.752374 139.166583c-9.516538 9.516538-22.409913 14.939942-35.917258 14.939942s-26.400719-5.423404-35.917258-14.939942l-130.366343-139.166583H107.291296c-41.852303 0-75.825322-24.558809-75.825322-66.308784V118.803238c0-20.056361 7.981613-39.396423 22.205256-53.620066 14.223643-14.223643 33.563705-22.102928 53.620066-22.102928z m530.777256 530.777256v50.550215h-252.751074v-50.550215h252.751074z m50.550215-50.550215H334.767263v176.925752h50.550215v-25.275108h252.751074v25.275108h50.550215V523.307285z m-328.576397-77.974218V472.75707h303.301289v-27.424003l97.416609 56.280603 25.275107-43.796542L511.693015 299.924453v-0.102328L237.350655 457.817128l25.275107 43.796542 97.416608-56.280603z m40.112721-23.126212l111.537924-64.466873 111.537923 64.466873H400.155091z m192.684321-176.925752h42.056961l29.163585 78.383532 46.150095-20.568003-20.056361-57.815529h89.230339v-50.550215H622.002998L637.55691 167.818527l-43.796542-25.275107-65.592486 121.054461 43.796543 25.275108 20.874987-43.591886z m-254.183671-50.550215l14.632957-25.275107-43.796543-25.275107-65.592485 121.054461 43.796543 25.275108 21.795942-45.22914h47.787349l29.163586 78.383532 46.150095-20.568003-20.056361-57.815529H501.460178v-50.550215H338.655741z m0 0" fill="#3D3D3D" p-id="3403"></path></svg>