<svg xmlns="http://www.w3.org/2000/svg" xmlns:xlink="http://www.w3.org/1999/xlink" fill="none" version="1.1" width="24" height="24" viewBox="0 0 24 24"><defs><clipPath id="master_svg0_211_10923"><rect x="0" y="0" width="24" height="24" rx="0"/></clipPath></defs><g clip-path="url(#master_svg0_211_10923)"><g><path d="M12.000244140625,22C6.477244140625,22,2.000244140625,17.523,2.000244140625,12C2.000244140625,6.477,6.477244140625,2,12.000244140625,2C17.523244140625,2,22.000244140625,6.477,22.000244140625,12C22.000244140625,17.523,17.523244140625,22,12.000244140625,22ZM18.355244140625,15.952L18.355244140625,15.847C18.355244140625,14.925,18.355244140625,14.504,17.703244140625,14.131C17.493644140625,14.0122,17.278444140625,13.9037,17.058244140625,13.806C16.691244140625003,13.639,16.448244140625,13.53,16.120244140624997,13.05C16.081044140625,12.993,16.042444140625,12.9357,16.004244140624998,12.878C15.659244140625,12.353,15.410244140625,11.975,14.462244140625,12.125C12.597244140625,12.421,12.459244140625,12.749,12.377244140625,13.303L12.364244140625,13.394C12.243244140625,14.204,12.221244140625,14.476,12.559244140625,14.831C13.824244140625,16.158,14.582244140625,17.115000000000002,14.812244140625,17.675C14.924244140625,17.948,15.212244140625,18.775,15.014244140625,19.593C16.228044140625002,19.1095,17.308544140625,18.3425,18.165244140625,17.356C18.275244140625,16.982,18.355244140625,16.516,18.355244140625,15.952ZM12.000244140625,3.833C9.683244140625,3.833,7.590244140625,4.7989999999999995,6.104244140625,6.349C6.281244140625,6.472,6.435244140625,6.645,6.541244140625,6.883C6.745244140625,7.34,6.745244140625,7.811,6.745244140625,8.228C6.745244140625,8.556000000000001,6.745244140625,8.868,6.850244140625,9.093C6.994244140625,9.401,7.616244140625,9.533000000000001,8.165244140625,9.647C8.362244140625,9.689,8.564244140625,9.731,8.748244140625001,9.782C9.254244140625,9.922,9.646244140625,10.377,9.959244140625,10.742C10.089244140625,10.893,10.282244140625,11.116,10.379244140625,11.172C10.429244140625,11.136,10.590244140625,10.961,10.669244140625,10.674C10.731244140625,10.454,10.713244140625,10.26,10.624244140625,10.154C10.064244140625,9.494,10.095244140625,8.224,10.268244140625,7.755C10.540244140625,7.016,11.390244140625,7.071,12.012244140625,7.111C12.244244140625,7.126,12.462244140625,7.141,12.626244140625,7.12C13.248244140625,7.042,13.440244140625,6.095,13.575244140625,5.91C13.867244140625,5.51,14.761244140625,4.907,15.315244140625,4.535C14.271744140625,4.07099,13.142244140625,3.83181,12.000244140625,3.833Z" fill="currentColor" fill-opacity="1"/></g></g></svg>