<svg t="1677042777802" class="icon" viewBox="0 0 1024 1024" version="1.1" xmlns="http://www.w3.org/2000/svg" p-id="19365" width="24" height="24"><path d="M 725.333 392.533 c -34.1333 0 -68.2667 17.0667 -89.6 42.6667 L 418.133 302.933 V 298.667 c 0 -64 -55.4667 -119.467 -119.467 -119.467 S 179.2 234.667 179.2 298.667 c 0 51.2 29.8667 93.8667 76.8 110.933 v 251.733 c -25.6 21.3333 -42.6667 51.2 -42.6667 85.3333 C 213.333 806.4 260.267 853.333 320 853.333 s 106.667 -46.9333 106.667 -106.667 c 0 -8.53333 0 -17.0667 -4.26667 -29.8667 l 213.333 -128 c 21.3333 25.6 55.4667 42.6667 89.6 42.6667 c 64 0 119.467 -55.4667 119.467 -119.467 c 0 -64 -55.4667 -119.467 -119.467 -119.467 Z m -324.267 285.867 c -17.0667 -21.3333 -46.9333 -38.4 -81.0667 -38.4 c -8.53333 0 -12.8 0 -21.3333 4.26667 V 418.133 c 46.9333 0 89.6 -29.8667 110.933 -72.5333 l 204.8 123.733 c -4.26667 12.8 -8.53333 25.6 -8.53333 42.6667 c 0 12.8 4.26667 29.8667 8.53333 42.6667 l -213.333 123.733 Z" p-id="19366" ></path></svg>