<svg xmlns="http://www.w3.org/2000/svg" xmlns:xlink="http://www.w3.org/1999/xlink" fill="none" version="1.1" width="24" height="24" viewBox="0 0 24 24"><defs><clipPath id="master_svg0_211_10909"><rect x="0" y="0" width="24" height="24" rx="0"/></clipPath></defs><g clip-path="url(#master_svg0_211_10909)"><g><path d="M12.0000640625,12.586244140625L16.2430640625,16.828244140625L14.8280640625,18.243244140625L13.0000640625,16.415244140625L13.0000640625,22.000244140625L11.0000640625,22.000244140625L11.0000640625,16.413244140625L9.1720940625,18.243244140625L7.7570940625,16.828244140625L12.0000640625,12.586244140625ZM12.0000640625,2.000244140625C15.5542640625,2.000412225625,18.5443640625,4.663724140625,18.9540640625,8.194244140624999C21.5220640625,8.894534140625,23.2200640625,11.333224140625,22.9856640625,13.984644140625C22.7513640625,16.636044140625,20.6520640625,18.739144140625,18.0010640625,18.978244140625L18.0000640625,17.000244140625C18.0033640625,13.728044140625,15.3842640625,11.056624140625,12.1125640625,10.995264140625C8.8409940625,10.933904140625,6.1235040625,13.505244140625,6.0040940625,16.775244140625L6.0000940625,17.000244140625L6.0000940625,18.978244140625C3.3489840625,18.739544140625,1.2493220625,16.636544140625,1.0147611625,13.985044140625C0.7802000625000001,11.333594140625,2.4780740625,8.894674140625,5.0460940625,8.194244140624999C5.4550340625,4.663784140624999,8.4453840625,2.000244021416,12.0000640625,2.000244140625Z" fill="currentColor" fill-opacity="1"/></g></g></svg>