<svg t="1677044078321" class="icon" viewBox="0 0 1024 1024" version="1.1" xmlns="http://www.w3.org/2000/svg" p-id="17698" width="20" height="20"><path d="M724.8 448H490.4c46.4-37.6 84-78.4 113.6-121.6 29.6 43.2 70.4 84 120.8 121.6zM896 160v704c0 17.6-14.4 32-32 32H160c-17.6 0-32-14.4-32-32V160c0-17.6 14.4-32 32-32h704c17.6 0 32 14.4 32 32zM768 720h-72.8c10.4-27.2 24.8-70.4 40.8-121.6 8.8-25.6 16-45.6 20-59.2l-53.6-13.6c-3.2 8-6.4 20.8-11.2 39.2-19.2 68.8-36 122.4-48 156H416v48h352V720z m-277.6-21.6l51.2-13.6c-13.6-50.4-28-98.4-44.8-143.2L448 552.8c14.4 48 28.8 96 42.4 145.6z m102.4-24.8l48.8-8.8c-8.8-46.4-19.2-92-31.2-136l-51.2 8.8c15.2 52 26.4 97.6 33.6 136z m198.4-250.4c-61.6-32.8-116.8-79.2-162.4-140.8L640 256h-66.4c-33.6 69.6-76.8 121.6-142.4 164V368h-56V256h-56v112h-64v48H320c-17.6 60-42.4 116-73.6 168.8 5.6 31.2 10.4 57.6 13.6 79.2 26.4-43.2 47.2-87.2 60-130.4V768h55.2l0.8-225.6 42.4 42.4 28.8-49.6c-25.6-20.8-48.8-40.8-71.2-58.4V416h52.8c-5.6 4.8-12.8 8-20 11.2 10.4 17.6 20 35.2 28.8 53.6 3.2-1.6 6.4-4 11.2-6.4 13.6-10.4 24-18.4 31.2-24.8V496h240v-46.4c1.6 1.6 3.2 2.4 6.4 4 16 12 29.6 20 40 24.8 7.2-17.6 16-37.6 24.8-55.2z" p-id="17699" ></path></svg>