<?xml version="1.0" standalone="no"?><!DOCTYPE svg PUBLIC "-//W3C//DTD SVG 1.1//EN" "http://www.w3.org/Graphics/SVG/1.1/DTD/svg11.dtd"><svg class="icon" width="200px" height="200.00px" viewBox="0 0 1024 1024" version="1.1" xmlns="http://www.w3.org/2000/svg"><path d="M590.808596 686.76062c-96.71964 43.498251-210.326837 0.511744-253.825088-96.207896-23.028486-51.686157-22.516742-110.536732 2.046977-161.711145l103.884058 103.884058c24.563718 25.587206 64.991504 26.098951 90.57871 1.535233s26.098951-64.991504 1.535233-90.578711l-1.535233-1.535232-104.395802-103.884058c95.696152-45.545227 210.326837-5.629185 255.872064 90.066966 24.563718 51.174413 25.075462 110.024988 2.046977 161.711145l301.929035 275.830084c35.310345 32.23988 37.869065 86.996502 5.629186 122.306847s-86.996502 37.869065-122.306847 5.629185c-2.046977-1.535232-3.582209-3.582209-5.629185-5.629185l-275.830085-301.417291z" fill="currentColor" /><path d="M659.382309 866.382809c-16.375812 6.652674-33.775112 12.793603-51.686157 17.3993v127.424288c0 7.164418-5.629185 12.793603-12.793603 12.793603H428.585707c-7.164418 0-12.793603-5.629185-12.793603-12.793603v-127.424288c-34.798601-9.211394-68.061969-23.028486-98.766617-40.93953l-90.066966 90.066966c-5.117441 5.117441-13.305347 5.117441-17.911045 0l-117.701149-117.701149c-5.117441-5.117441-5.117441-13.305347 0-17.911045l90.066966-90.066966c-18.422789-30.704648-32.23988-64.47976-40.93953-98.766617H13.049475c-7.164418 0-12.793603-5.629185-12.793603-12.793603V428.329835c0-7.164418 5.629185-12.793603 12.793603-12.793603h127.424288c9.211394-35.310345 23.028486-68.573713 40.93953-98.766617L91.346327 226.702649c-5.117441-5.117441-5.117441-13.305347 0-17.911045l117.701149-117.701149c5.117441-5.117441 13.305347-5.117441 17.911045 0l90.066966 90.066966c30.704648-17.911044 63.968016-31.728136 98.766617-40.93953V12.793603c0-7.164418 5.629185-12.793603 12.793603-12.793603h166.316842c7.164418 0 12.793603 5.629185 12.793603 12.793603v127.424288c35.310345 9.211394 68.573713 23.028486 98.766617 40.93953l90.066966-90.066966c5.117441-5.117441 13.305347-5.117441 17.911045 0l117.701149 117.701149c5.117441 5.117441 5.117441 13.305347 0 17.911045l-90.066966 90.066966c17.911044 30.704648 31.728136 63.968016 40.93953 98.766617h126.912543c7.164418 0 12.793603 5.629185 12.793604 12.793603v166.316842c0 7.164418-5.629185 12.793603-12.793604 12.793603h-127.424287c-6.14093 24.051974-14.84058 47.592204-25.587207 70.108945-3.070465 6.14093-10.746627 9.211394-16.887556 6.14093-1.023488-0.511744-2.046977-1.023488-3.070465-2.046977l-13.305347-12.281859-51.174413-45.545227-16.375812-14.328836c-4.093953-3.582209-5.117441-8.69965-3.582209-13.817091 46.056972-133.565217-25.075462-279.412294-158.64068-325.98101-25.587206-9.211394-53.733133-13.817091-81.87906-13.817091-141.241379 0-255.872064 114.630685-255.872064 255.872064s114.630685 255.872064 255.872064 255.872064c28.657671 0 57.315342-4.605697 83.926037-14.328836 4.605697-1.535232 10.234883-0.511744 13.817091 3.582209l14.328836 15.864068 47.08046 52.197901 10.746626 12.281859c4.605697 5.117441 4.093953 13.305347-1.023488 17.911045-1.023488 1.023488-2.046977 1.535232-3.070465 2.046976-6.14093 3.582209-12.281859 6.14093-18.422788 9.211395z" fill="currentColor" /></svg>