<svg t="1700730615525" class="icon" viewBox="0 0 1024 1024" version="1.1" xmlns="http://www.w3.org/2000/svg" p-id="15348" width="200" height="200"><path d="M107.291296 43.080244h808.701109c41.852303 0 75.825322 33.870691 75.825323 75.722994v641.394224c0 41.852303-33.870691 66.308784-75.825323 66.308784H677.464975l-129.752374 139.166583c-9.516538 9.516538-22.409913 14.939942-35.917258 14.939942s-26.400719-5.423404-35.917258-14.939942l-130.366343-139.166583H107.291296c-41.852303 0-75.825322-24.558809-75.825322-66.308784V118.803238c0-20.056361 7.981613-39.396423 22.205256-53.620066 14.223643-14.223643 33.563705-22.102928 53.620066-22.102928z m202.200859 657.152793V295.831318H258.941941v404.401719h50.550214z m404.401719-50.550215h-101.100429v50.550215H764.444089V169.455781H410.592585V220.005996h303.301289v429.676826zM435.867693 523.307285V371.65664h151.650644v151.650645H435.867693z m-50.550215-202.200859v252.751074h252.751074v-252.751074h-252.751074zM282.682123 144.794644l-35.81493 35.712601 89.332667 89.332667 35.712601-35.712601-89.230338-89.332667z m0 0" fill="#3D3D3D" p-id="15349"></path></svg>