<svg xmlns="http://www.w3.org/2000/svg" xmlns:xlink="http://www.w3.org/1999/xlink" fill="none" version="1.1" width="24" height="24" viewBox="0 0 24 24"><defs><clipPath id="master_svg0_211_10912"><rect x="0" y="0" width="24" height="24" rx="0"/></clipPath></defs><g clip-path="url(#master_svg0_211_10912)"><g><path d="M8.68588765625,3.999643515625L11.29289765625,1.3926405156250001C11.68339765625,1.002257915625,12.31639765625,1.002257915625,12.70689765625,1.3926405156250001L15.31389765625,3.999643515625L18.99989765625,3.999643515625C19.55219765625,3.999643515625,19.99989765625,4.447353515625,19.99989765625,4.999643515624999L19.99989765625,8.685643515625L22.60689765625,11.292653515625C22.99729765625,11.683153515625,22.99729765625,12.316153515625,22.60689765625,12.706653515625L19.99989765625,15.313653515625L19.99989765625,18.999653515625C19.99989765625,19.551953515625,19.55219765625,19.999653515625,18.99989765625,19.999653515625L15.31389765625,19.999653515625L12.70689765625,22.606653515625C12.31639765625,22.997053515625,11.68339765625,22.997053515625,11.29289765625,22.606653515625L8.68588765625,19.999653515625L4.999887656249999,19.999653515625C4.44759765625,19.999653515625,3.99988765625,19.551953515625,3.99988765625,18.999653515625L3.99988765625,15.313653515625L1.3928846562500001,12.706653515625C1.00250205625,12.316153515625,1.00250205625,11.683153515625,1.3928846562500001,11.292653515625L3.99988765625,8.685643515625L3.99988765625,4.999643515624999C3.99988765625,4.447353515625,4.44759765625,3.999643515625,4.999887656249999,3.999643515625L8.68588765625,3.999643515625ZM11.99989765625,14.999653515625C13.65669765625,14.999653515625,14.99989765625,13.656453515625,14.99989765625,11.999653515625C14.99989765625,10.342783515625,13.65669765625,8.999643515625,11.99989765625,8.999643515625C10.34302765625,8.999643515625,8.99988765625,10.342783515625,8.99988765625,11.999653515625C8.99988765625,13.656453515625,10.34302765625,14.999653515625,11.99989765625,14.999653515625Z" fill="currentColor" fill-opacity="1"/></g></g></svg>