<svg t="1677044176121" class="icon" viewBox="0 0 1024 1024" version="1.1" xmlns="http://www.w3.org/2000/svg" p-id="19496" width="24" height="24"><path d="M512 0a512 512 0 1 0 512 512 512 512 0 0 0-512-512z m170.666667 398.222222a113.777778 113.777778 0 0 1-89.884445-44.373333L398.222222 438.044444V455.111111a113.777778 113.777778 0 0 1-29.013333 75.662222l105.244444 158.151111A118.328889 118.328889 0 0 1 512 682.666667a113.777778 113.777778 0 1 1-113.777778 113.777777 113.777778 113.777778 0 0 1 29.013334-75.662222L321.991111 562.631111A118.328889 118.328889 0 0 1 284.444444 568.888889a113.777778 113.777778 0 0 1 0-227.555556 113.777778 113.777778 0 0 1 89.884445 44.373334L568.888889 301.511111V284.444444a113.777778 113.777778 0 1 1 113.777778 113.777778z" p-id="19497" ></path></svg>