<?xml version="1.0" standalone="no"?><!DOCTYPE svg PUBLIC "-//W3C//DTD SVG 1.1//EN" "http://www.w3.org/Graphics/SVG/1.1/DTD/svg11.dtd"><svg t="1706687958471" class="icon" viewBox="0 0 1024 1024" version="1.1" xmlns="http://www.w3.org/2000/svg" p-id="4322" xmlns:xlink="http://www.w3.org/1999/xlink" width="200" height="200"><path d="M512 511.80270452l0 0.14092533a0.02818507 0.02818507 0 0 1-0.02818507 0.02818508l-0.14092534 0L511.83088959 512.19729548 512.16911041 512.19729548l0-0.39459096-0.16911041 0z m-0.05637015 0.0116686L511.8425582 511.91544479 511.94362985 511.91544479l0-0.10107166zM512.19729548 512.25366563l-0.39459096 0a0.02818507 0.02818507 0 0 1-0.02818507-0.02818508l0-0.31003577a0.02818507 0.02818507 0 0 1 0.00825821-0.01992683l0.14092536-0.14092535A0.02818507 0.02818507 0 0 1 511.94362985 511.74633437L512.19729548 511.74633437a0.02818507 0.02818507 0 0 1 0.02818507 0.02818508L512.22548055 512.22548055a0.02818507 0.02818507 0 0 1-0.02818506 0.02818507z" fill="#ffffff" p-id="4323"></path></svg>